<svg xmlns="http://www.w3.org/2000/svg" xmlns:xlink="http://www.w3.org/1999/xlink" version="1.1" x="0px" y="0px" viewBox="0 0 45 45.5" enable-background="new 0 0 45 45.5" xml:space="preserve" style="fill: rgb(0, 0, 0);" role="img" aria-label="Play Icon">
    <g id="__id43_swzr5n6rti">
        <g>
            <path d="M22.588,44.464C10.519,44.464,0.7,34.645,0.7,22.576c0-12.069,9.819-21.888,21.888-21.888    c12.07,0,21.89,9.819,21.89,21.888c0,5.566-2.093,10.871-5.892,14.937c-0.453,0.485-1.213,0.509-1.696,0.058    c-0.484-0.453-0.51-1.212-0.058-1.696c3.383-3.619,5.245-8.342,5.245-13.298c0-10.746-8.743-19.488-19.489-19.488    C11.842,3.088,3.1,11.831,3.1,22.576c0,10.745,8.742,19.487,19.488,19.487c3.325,0,6.606-0.852,9.488-2.463    c0.581-0.322,1.311-0.116,1.634,0.462c0.323,0.579,0.116,1.31-0.462,1.634C30.009,43.507,26.322,44.464,22.588,44.464z" style="fill: rgb(254, 213, 49);"></path>
        </g>
        <g>
            <path d="M16.917,32.808c-0.433,0-0.851-0.235-1.065-0.646c-0.306-0.588-0.078-1.312,0.51-1.619l15.057-7.844    L18.116,15.55v11.348c0,0.663-0.538,1.2-1.2,1.2s-1.2-0.537-1.2-1.2V13.543c0-0.422,0.222-0.813,0.584-1.03    c0.363-0.217,0.812-0.227,1.184-0.027l17.069,9.173c0.392,0.21,0.635,0.62,0.632,1.065c-0.003,0.444-0.252,0.851-0.646,1.057    L17.47,32.672C17.293,32.764,17.104,32.808,16.917,32.808z" style="fill: rgb(254, 213, 49);"></path>
        </g>
    </g>
</svg>